<?xml version="1.0" encoding="UTF-8" standalone="no"?>
<!DOCTYPE svg PUBLIC "-//W3C//DTD SVG 1.1//EN"
 "http://www.w3.org/Graphics/SVG/1.1/DTD/svg11.dtd">
<!-- Generated by graphviz version 2.43.0 (0)
 -->
<!-- Title: G Pages: 1 -->
<svg width="2035pt" height="73pt"
 viewBox="0.00 0.00 1526.00 55.00" xmlns="http://www.w3.org/2000/svg" xmlns:xlink="http://www.w3.org/1999/xlink">
<g id="graph0" class="graph" transform="scale(0.75 0.75) rotate(0) translate(4 51)">
<title>G</title>
<polygon fill="white" stroke="transparent" points="-4,4 -4,-51 1522,-51 1522,4 -4,4"/>
<!-- 140057577912400 -->
<g id="node1" class="node">
<title>140057577912400</title>
<polygon fill="none" stroke="black" points="0,-0.5 0,-46.5 112,-46.5 112,-0.5 0,-0.5"/>
<text text-anchor="middle" x="56" y="-31.3" font-family="Times,serif" font-size="14.00">conv2d_input</text>
<polyline fill="none" stroke="black" points="0,-23.5 112,-23.5 "/>
<text text-anchor="middle" x="56" y="-8.3" font-family="Times,serif" font-size="14.00">InputLayer</text>
</g>
<!-- 140057577912256 -->
<g id="node2" class="node">
<title>140057577912256</title>
<polygon fill="none" stroke="black" points="148,-0.5 148,-46.5 221,-46.5 221,-0.5 148,-0.5"/>
<text text-anchor="middle" x="184.5" y="-31.3" font-family="Times,serif" font-size="14.00">conv2d</text>
<polyline fill="none" stroke="black" points="148,-23.5 221,-23.5 "/>
<text text-anchor="middle" x="184.5" y="-8.3" font-family="Times,serif" font-size="14.00">Conv2D</text>
</g>
<!-- 140057577912400&#45;&gt;140057577912256 -->
<g id="edge1" class="edge">
<title>140057577912400&#45;&gt;140057577912256</title>
<path fill="none" stroke="black" d="M112.12,-23.5C120.64,-23.5 129.36,-23.5 137.65,-23.5"/>
<polygon fill="black" stroke="black" points="137.87,-27 147.87,-23.5 137.87,-20 137.87,-27"/>
</g>
<!-- 140057577573824 -->
<g id="node3" class="node">
<title>140057577573824</title>
<polygon fill="none" stroke="black" points="257,-0.5 257,-46.5 381,-46.5 381,-0.5 257,-0.5"/>
<text text-anchor="middle" x="319" y="-31.3" font-family="Times,serif" font-size="14.00">max_pooling2d</text>
<polyline fill="none" stroke="black" points="257,-23.5 381,-23.5 "/>
<text text-anchor="middle" x="319" y="-8.3" font-family="Times,serif" font-size="14.00">MaxPooling2D</text>
</g>
<!-- 140057577912256&#45;&gt;140057577573824 -->
<g id="edge2" class="edge">
<title>140057577912256&#45;&gt;140057577573824</title>
<path fill="none" stroke="black" d="M221.01,-23.5C229.03,-23.5 237.82,-23.5 246.73,-23.5"/>
<polygon fill="black" stroke="black" points="246.82,-27 256.82,-23.5 246.82,-20 246.82,-27"/>
</g>
<!-- 140057543062144 -->
<g id="node4" class="node">
<title>140057543062144</title>
<polygon fill="none" stroke="black" points="417,-0.5 417,-46.5 500,-46.5 500,-0.5 417,-0.5"/>
<text text-anchor="middle" x="458.5" y="-31.3" font-family="Times,serif" font-size="14.00">conv2d_1</text>
<polyline fill="none" stroke="black" points="417,-23.5 500,-23.5 "/>
<text text-anchor="middle" x="458.5" y="-8.3" font-family="Times,serif" font-size="14.00">Conv2D</text>
</g>
<!-- 140057577573824&#45;&gt;140057543062144 -->
<g id="edge3" class="edge">
<title>140057577573824&#45;&gt;140057543062144</title>
<path fill="none" stroke="black" d="M381.11,-23.5C389.58,-23.5 398.21,-23.5 406.47,-23.5"/>
<polygon fill="black" stroke="black" points="406.7,-27 416.7,-23.5 406.7,-20 406.7,-27"/>
</g>
<!-- 140057543269104 -->
<g id="node5" class="node">
<title>140057543269104</title>
<polygon fill="none" stroke="black" points="536,-0.5 536,-46.5 676,-46.5 676,-0.5 536,-0.5"/>
<text text-anchor="middle" x="606" y="-31.3" font-family="Times,serif" font-size="14.00">max_pooling2d_1</text>
<polyline fill="none" stroke="black" points="536,-23.5 676,-23.5 "/>
<text text-anchor="middle" x="606" y="-8.3" font-family="Times,serif" font-size="14.00">MaxPooling2D</text>
</g>
<!-- 140057543062144&#45;&gt;140057543269104 -->
<g id="edge4" class="edge">
<title>140057543062144&#45;&gt;140057543269104</title>
<path fill="none" stroke="black" d="M500.03,-23.5C508.16,-23.5 516.95,-23.5 525.88,-23.5"/>
<polygon fill="black" stroke="black" points="525.98,-27 535.98,-23.5 525.98,-20 525.98,-27"/>
</g>
<!-- 140057542843984 -->
<g id="node6" class="node">
<title>140057542843984</title>
<polygon fill="none" stroke="black" points="712,-0.5 712,-46.5 795,-46.5 795,-0.5 712,-0.5"/>
<text text-anchor="middle" x="753.5" y="-31.3" font-family="Times,serif" font-size="14.00">conv2d_2</text>
<polyline fill="none" stroke="black" points="712,-23.5 795,-23.5 "/>
<text text-anchor="middle" x="753.5" y="-8.3" font-family="Times,serif" font-size="14.00">Conv2D</text>
</g>
<!-- 140057543269104&#45;&gt;140057542843984 -->
<g id="edge5" class="edge">
<title>140057543269104&#45;&gt;140057542843984</title>
<path fill="none" stroke="black" d="M676.34,-23.5C684.88,-23.5 693.49,-23.5 701.69,-23.5"/>
<polygon fill="black" stroke="black" points="701.81,-27 711.81,-23.5 701.81,-20 701.81,-27"/>
</g>
<!-- 140057542842400 -->
<g id="node7" class="node">
<title>140057542842400</title>
<polygon fill="none" stroke="black" points="831,-0.5 831,-46.5 971,-46.5 971,-0.5 831,-0.5"/>
<text text-anchor="middle" x="901" y="-31.3" font-family="Times,serif" font-size="14.00">max_pooling2d_2</text>
<polyline fill="none" stroke="black" points="831,-23.5 971,-23.5 "/>
<text text-anchor="middle" x="901" y="-8.3" font-family="Times,serif" font-size="14.00">MaxPooling2D</text>
</g>
<!-- 140057542843984&#45;&gt;140057542842400 -->
<g id="edge6" class="edge">
<title>140057542843984&#45;&gt;140057542842400</title>
<path fill="none" stroke="black" d="M795.03,-23.5C803.16,-23.5 811.95,-23.5 820.88,-23.5"/>
<polygon fill="black" stroke="black" points="820.98,-27 830.98,-23.5 820.98,-20 820.98,-27"/>
</g>
<!-- 140057543065456 -->
<g id="node8" class="node">
<title>140057543065456</title>
<polygon fill="none" stroke="black" points="1007,-0.5 1007,-46.5 1082,-46.5 1082,-0.5 1007,-0.5"/>
<text text-anchor="middle" x="1044.5" y="-31.3" font-family="Times,serif" font-size="14.00">dropout</text>
<polyline fill="none" stroke="black" points="1007,-23.5 1082,-23.5 "/>
<text text-anchor="middle" x="1044.5" y="-8.3" font-family="Times,serif" font-size="14.00">Dropout</text>
</g>
<!-- 140057542842400&#45;&gt;140057543065456 -->
<g id="edge7" class="edge">
<title>140057542842400&#45;&gt;140057543065456</title>
<path fill="none" stroke="black" d="M971.09,-23.5C979.77,-23.5 988.49,-23.5 996.71,-23.5"/>
<polygon fill="black" stroke="black" points="996.83,-27 1006.83,-23.5 996.83,-20 996.83,-27"/>
</g>
<!-- 140057543266512 -->
<g id="node9" class="node">
<title>140057543266512</title>
<polygon fill="none" stroke="black" points="1118,-0.5 1118,-46.5 1186,-46.5 1186,-0.5 1118,-0.5"/>
<text text-anchor="middle" x="1152" y="-31.3" font-family="Times,serif" font-size="14.00">flatten</text>
<polyline fill="none" stroke="black" points="1118,-23.5 1186,-23.5 "/>
<text text-anchor="middle" x="1152" y="-8.3" font-family="Times,serif" font-size="14.00">Flatten</text>
</g>
<!-- 140057543065456&#45;&gt;140057543266512 -->
<g id="edge8" class="edge">
<title>140057543065456&#45;&gt;140057543266512</title>
<path fill="none" stroke="black" d="M1082.1,-23.5C1090.4,-23.5 1099.28,-23.5 1107.81,-23.5"/>
<polygon fill="black" stroke="black" points="1107.99,-27 1117.99,-23.5 1107.99,-20 1107.99,-27"/>
</g>
<!-- 140057543065552 -->
<g id="node10" class="node">
<title>140057543065552</title>
<polygon fill="none" stroke="black" points="1222,-0.5 1222,-46.5 1283,-46.5 1283,-0.5 1222,-0.5"/>
<text text-anchor="middle" x="1252.5" y="-31.3" font-family="Times,serif" font-size="14.00">dense</text>
<polyline fill="none" stroke="black" points="1222,-23.5 1283,-23.5 "/>
<text text-anchor="middle" x="1252.5" y="-8.3" font-family="Times,serif" font-size="14.00">Dense</text>
</g>
<!-- 140057543266512&#45;&gt;140057543065552 -->
<g id="edge9" class="edge">
<title>140057543266512&#45;&gt;140057543065552</title>
<path fill="none" stroke="black" d="M1186.07,-23.5C1194.34,-23.5 1203.29,-23.5 1211.83,-23.5"/>
<polygon fill="black" stroke="black" points="1211.99,-27 1221.99,-23.5 1211.99,-20 1211.99,-27"/>
</g>
<!-- 140057542997040 -->
<g id="node11" class="node">
<title>140057542997040</title>
<polygon fill="none" stroke="black" points="1319,-0.5 1319,-46.5 1408,-46.5 1408,-0.5 1319,-0.5"/>
<text text-anchor="middle" x="1363.5" y="-31.3" font-family="Times,serif" font-size="14.00">dropout_1</text>
<polyline fill="none" stroke="black" points="1319,-23.5 1408,-23.5 "/>
<text text-anchor="middle" x="1363.5" y="-8.3" font-family="Times,serif" font-size="14.00">Dropout</text>
</g>
<!-- 140057543065552&#45;&gt;140057542997040 -->
<g id="edge10" class="edge">
<title>140057543065552&#45;&gt;140057542997040</title>
<path fill="none" stroke="black" d="M1283.28,-23.5C1291.17,-23.5 1299.93,-23.5 1308.66,-23.5"/>
<polygon fill="black" stroke="black" points="1308.85,-27 1318.85,-23.5 1308.85,-20 1308.85,-27"/>
</g>
<!-- 140057542999152 -->
<g id="node12" class="node">
<title>140057542999152</title>
<polygon fill="none" stroke="black" points="1444,-0.5 1444,-46.5 1518,-46.5 1518,-0.5 1444,-0.5"/>
<text text-anchor="middle" x="1481" y="-31.3" font-family="Times,serif" font-size="14.00">dense_1</text>
<polyline fill="none" stroke="black" points="1444,-23.5 1518,-23.5 "/>
<text text-anchor="middle" x="1481" y="-8.3" font-family="Times,serif" font-size="14.00">Dense</text>
</g>
<!-- 140057542997040&#45;&gt;140057542999152 -->
<g id="edge11" class="edge">
<title>140057542997040&#45;&gt;140057542999152</title>
<path fill="none" stroke="black" d="M1408.17,-23.5C1416.52,-23.5 1425.3,-23.5 1433.73,-23.5"/>
<polygon fill="black" stroke="black" points="1433.8,-27 1443.8,-23.5 1433.8,-20 1433.8,-27"/>
</g>
</g>
</svg>
