<?xml version="1.0" encoding="UTF-8" standalone="no"?>
<!DOCTYPE svg PUBLIC "-//W3C//DTD SVG 1.1//EN"
 "http://www.w3.org/Graphics/SVG/1.1/DTD/svg11.dtd">
<!-- Generated by graphviz version 2.43.0 (0)
 -->
<!-- Title: G Pages: 1 -->
<svg width="357pt" height="1131pt"
 viewBox="0.00 0.00 268.00 848.00" xmlns="http://www.w3.org/2000/svg" xmlns:xlink="http://www.w3.org/1999/xlink">
<g id="graph0" class="graph" transform="scale(0.75 0.75) rotate(0) translate(4 844)">
<title>G</title>
<polygon fill="white" stroke="transparent" points="-4,4 -4,-844 264,-844 264,4 -4,4"/>
<!-- 140014845372688 -->
<g id="node1" class="node">
<title>140014845372688</title>
<polygon fill="none" stroke="black" points="26.5,-803.5 26.5,-839.5 233.5,-839.5 233.5,-803.5 26.5,-803.5"/>
<text text-anchor="middle" x="82.5" y="-817.8" font-family="Times,serif" font-size="14.00">conv2d_input</text>
<polyline fill="none" stroke="black" points="138.5,-803.5 138.5,-839.5 "/>
<text text-anchor="middle" x="186" y="-817.8" font-family="Times,serif" font-size="14.00">InputLayer</text>
</g>
<!-- 140014845372544 -->
<g id="node2" class="node">
<title>140014845372544</title>
<polygon fill="none" stroke="black" points="59.5,-730.5 59.5,-766.5 200.5,-766.5 200.5,-730.5 59.5,-730.5"/>
<text text-anchor="middle" x="93.5" y="-744.8" font-family="Times,serif" font-size="14.00">conv2d</text>
<polyline fill="none" stroke="black" points="127.5,-730.5 127.5,-766.5 "/>
<text text-anchor="middle" x="164" y="-744.8" font-family="Times,serif" font-size="14.00">Conv2D</text>
</g>
<!-- 140014845372688&#45;&gt;140014845372544 -->
<g id="edge1" class="edge">
<title>140014845372688&#45;&gt;140014845372544</title>
<path fill="none" stroke="black" d="M130,-803.31C130,-795.29 130,-785.55 130,-776.57"/>
<polygon fill="black" stroke="black" points="133.5,-776.53 130,-766.53 126.5,-776.53 133.5,-776.53"/>
</g>
<!-- 140014845038208 -->
<g id="node3" class="node">
<title>140014845038208</title>
<polygon fill="none" stroke="black" points="8,-657.5 8,-693.5 252,-693.5 252,-657.5 8,-657.5"/>
<text text-anchor="middle" x="70" y="-671.8" font-family="Times,serif" font-size="14.00">max_pooling2d</text>
<polyline fill="none" stroke="black" points="132,-657.5 132,-693.5 "/>
<text text-anchor="middle" x="192" y="-671.8" font-family="Times,serif" font-size="14.00">MaxPooling2D</text>
</g>
<!-- 140014845372544&#45;&gt;140014845038208 -->
<g id="edge2" class="edge">
<title>140014845372544&#45;&gt;140014845038208</title>
<path fill="none" stroke="black" d="M130,-730.31C130,-722.29 130,-712.55 130,-703.57"/>
<polygon fill="black" stroke="black" points="133.5,-703.53 130,-693.53 126.5,-703.53 133.5,-703.53"/>
</g>
<!-- 140014793732928 -->
<g id="node4" class="node">
<title>140014793732928</title>
<polygon fill="none" stroke="black" points="52,-584.5 52,-620.5 208,-620.5 208,-584.5 52,-584.5"/>
<text text-anchor="middle" x="93.5" y="-598.8" font-family="Times,serif" font-size="14.00">conv2d_1</text>
<polyline fill="none" stroke="black" points="135,-584.5 135,-620.5 "/>
<text text-anchor="middle" x="171.5" y="-598.8" font-family="Times,serif" font-size="14.00">Conv2D</text>
</g>
<!-- 140014845038208&#45;&gt;140014793732928 -->
<g id="edge3" class="edge">
<title>140014845038208&#45;&gt;140014793732928</title>
<path fill="none" stroke="black" d="M130,-657.31C130,-649.29 130,-639.55 130,-630.57"/>
<polygon fill="black" stroke="black" points="133.5,-630.53 130,-620.53 126.5,-630.53 133.5,-630.53"/>
</g>
<!-- 140014793931696 -->
<g id="node5" class="node">
<title>140014793931696</title>
<polygon fill="none" stroke="black" points="0,-511.5 0,-547.5 260,-547.5 260,-511.5 0,-511.5"/>
<text text-anchor="middle" x="70" y="-525.8" font-family="Times,serif" font-size="14.00">max_pooling2d_1</text>
<polyline fill="none" stroke="black" points="140,-511.5 140,-547.5 "/>
<text text-anchor="middle" x="200" y="-525.8" font-family="Times,serif" font-size="14.00">MaxPooling2D</text>
</g>
<!-- 140014793732928&#45;&gt;140014793931696 -->
<g id="edge4" class="edge">
<title>140014793732928&#45;&gt;140014793931696</title>
<path fill="none" stroke="black" d="M130,-584.31C130,-576.29 130,-566.55 130,-557.57"/>
<polygon fill="black" stroke="black" points="133.5,-557.53 130,-547.53 126.5,-557.53 133.5,-557.53"/>
</g>
<!-- 140014793547536 -->
<g id="node6" class="node">
<title>140014793547536</title>
<polygon fill="none" stroke="black" points="52,-438.5 52,-474.5 208,-474.5 208,-438.5 52,-438.5"/>
<text text-anchor="middle" x="93.5" y="-452.8" font-family="Times,serif" font-size="14.00">conv2d_2</text>
<polyline fill="none" stroke="black" points="135,-438.5 135,-474.5 "/>
<text text-anchor="middle" x="171.5" y="-452.8" font-family="Times,serif" font-size="14.00">Conv2D</text>
</g>
<!-- 140014793931696&#45;&gt;140014793547536 -->
<g id="edge5" class="edge">
<title>140014793931696&#45;&gt;140014793547536</title>
<path fill="none" stroke="black" d="M130,-511.31C130,-503.29 130,-493.55 130,-484.57"/>
<polygon fill="black" stroke="black" points="133.5,-484.53 130,-474.53 126.5,-484.53 133.5,-484.53"/>
</g>
<!-- 140014793546480 -->
<g id="node7" class="node">
<title>140014793546480</title>
<polygon fill="none" stroke="black" points="0,-365.5 0,-401.5 260,-401.5 260,-365.5 0,-365.5"/>
<text text-anchor="middle" x="70" y="-379.8" font-family="Times,serif" font-size="14.00">max_pooling2d_2</text>
<polyline fill="none" stroke="black" points="140,-365.5 140,-401.5 "/>
<text text-anchor="middle" x="200" y="-379.8" font-family="Times,serif" font-size="14.00">MaxPooling2D</text>
</g>
<!-- 140014793547536&#45;&gt;140014793546480 -->
<g id="edge6" class="edge">
<title>140014793547536&#45;&gt;140014793546480</title>
<path fill="none" stroke="black" d="M130,-438.31C130,-430.29 130,-420.55 130,-411.57"/>
<polygon fill="black" stroke="black" points="133.5,-411.53 130,-401.53 126.5,-411.53 133.5,-411.53"/>
</g>
<!-- 140014793732496 -->
<g id="node8" class="node">
<title>140014793732496</title>
<polygon fill="none" stroke="black" points="56,-292.5 56,-328.5 204,-328.5 204,-292.5 56,-292.5"/>
<text text-anchor="middle" x="92.5" y="-306.8" font-family="Times,serif" font-size="14.00">dropout</text>
<polyline fill="none" stroke="black" points="129,-292.5 129,-328.5 "/>
<text text-anchor="middle" x="166.5" y="-306.8" font-family="Times,serif" font-size="14.00">Dropout</text>
</g>
<!-- 140014793546480&#45;&gt;140014793732496 -->
<g id="edge7" class="edge">
<title>140014793546480&#45;&gt;140014793732496</title>
<path fill="none" stroke="black" d="M130,-365.31C130,-357.29 130,-347.55 130,-338.57"/>
<polygon fill="black" stroke="black" points="133.5,-338.53 130,-328.53 126.5,-338.53 133.5,-338.53"/>
</g>
<!-- 140014793929248 -->
<g id="node9" class="node">
<title>140014793929248</title>
<polygon fill="none" stroke="black" points="64,-219.5 64,-255.5 196,-255.5 196,-219.5 64,-219.5"/>
<text text-anchor="middle" x="96" y="-233.8" font-family="Times,serif" font-size="14.00">flatten</text>
<polyline fill="none" stroke="black" points="128,-219.5 128,-255.5 "/>
<text text-anchor="middle" x="162" y="-233.8" font-family="Times,serif" font-size="14.00">Flatten</text>
</g>
<!-- 140014793732496&#45;&gt;140014793929248 -->
<g id="edge8" class="edge">
<title>140014793732496&#45;&gt;140014793929248</title>
<path fill="none" stroke="black" d="M130,-292.31C130,-284.29 130,-274.55 130,-265.57"/>
<polygon fill="black" stroke="black" points="133.5,-265.53 130,-255.53 126.5,-265.53 133.5,-265.53"/>
</g>
<!-- 140014793736000 -->
<g id="node10" class="node">
<title>140014793736000</title>
<polygon fill="none" stroke="black" points="70,-146.5 70,-182.5 190,-182.5 190,-146.5 70,-146.5"/>
<text text-anchor="middle" x="99.5" y="-160.8" font-family="Times,serif" font-size="14.00">dense</text>
<polyline fill="none" stroke="black" points="129,-146.5 129,-182.5 "/>
<text text-anchor="middle" x="159.5" y="-160.8" font-family="Times,serif" font-size="14.00">Dense</text>
</g>
<!-- 140014793929248&#45;&gt;140014793736000 -->
<g id="edge9" class="edge">
<title>140014793929248&#45;&gt;140014793736000</title>
<path fill="none" stroke="black" d="M130,-219.31C130,-211.29 130,-201.55 130,-192.57"/>
<polygon fill="black" stroke="black" points="133.5,-192.53 130,-182.53 126.5,-192.53 133.5,-192.53"/>
</g>
<!-- 140014793663728 -->
<g id="node11" class="node">
<title>140014793663728</title>
<polygon fill="none" stroke="black" points="48,-73.5 48,-109.5 212,-109.5 212,-73.5 48,-73.5"/>
<text text-anchor="middle" x="92.5" y="-87.8" font-family="Times,serif" font-size="14.00">dropout_1</text>
<polyline fill="none" stroke="black" points="137,-73.5 137,-109.5 "/>
<text text-anchor="middle" x="174.5" y="-87.8" font-family="Times,serif" font-size="14.00">Dropout</text>
</g>
<!-- 140014793736000&#45;&gt;140014793663728 -->
<g id="edge10" class="edge">
<title>140014793736000&#45;&gt;140014793663728</title>
<path fill="none" stroke="black" d="M130,-146.31C130,-138.29 130,-128.55 130,-119.57"/>
<polygon fill="black" stroke="black" points="133.5,-119.53 130,-109.53 126.5,-119.53 133.5,-119.53"/>
</g>
<!-- 140014793664448 -->
<g id="node12" class="node">
<title>140014793664448</title>
<polygon fill="none" stroke="black" points="62.5,-0.5 62.5,-36.5 197.5,-36.5 197.5,-0.5 62.5,-0.5"/>
<text text-anchor="middle" x="99.5" y="-14.8" font-family="Times,serif" font-size="14.00">dense_1</text>
<polyline fill="none" stroke="black" points="136.5,-0.5 136.5,-36.5 "/>
<text text-anchor="middle" x="167" y="-14.8" font-family="Times,serif" font-size="14.00">Dense</text>
</g>
<!-- 140014793663728&#45;&gt;140014793664448 -->
<g id="edge11" class="edge">
<title>140014793663728&#45;&gt;140014793664448</title>
<path fill="none" stroke="black" d="M130,-73.31C130,-65.29 130,-55.55 130,-46.57"/>
<polygon fill="black" stroke="black" points="133.5,-46.53 130,-36.53 126.5,-46.53 133.5,-46.53"/>
</g>
</g>
</svg>
